<svg width="123" height="125" fill="none" xmlns="http://www.w3.org/2000/svg"><path d="M84.876 111.37c4.004-6.225-4.766-16.65-19.59-23.287-14.823-6.637-30.086-6.97-34.09-.745-4.005 6.225 4.765 16.651 19.588 23.288 14.824 6.636 30.087 6.969 34.092.744Z" fill="#A358DF"/><path opacity=".6" fill-rule="evenodd" clip-rule="evenodd" d="M85.3 110.59c2.856-6.287-5.794-16.14-20.014-22.507-14.824-6.637-30.087-6.97-34.091-.745-.68 1.057-.992 2.235-.968 3.494a6.11 6.11 0 0 1 .425-.78c4.005-6.225 19.268-5.891 34.092.745C77.05 96.307 85.185 104.43 85.3 110.59Z" fill="url(#a)"/><mask id="b" style="mask-type:alpha" maskUnits="userSpaceOnUse" x="29" y="9" width="58" height="107"><path d="M84.874 110.595c4.004-7.462 2.096-88.53-12.727-96.486-61.415-25.614-36.949 65.619-40.953 73.08-4.005 7.463 4.873 16.275 20.062 23.87 15.46 5.967 29.613 6.998 33.618-.464Z" fill="#FC0"/></mask><g mask="url(#b)"><path d="M42.698 27.13c-.907 2.016-4.1 15.429-5.647 22.992l6.857 4.135c1.547-5.614 4.337-18.455 3.933-23.296-.504-6.05-4.371-5.546-5.143-3.832Z" fill="#D76377"/><path d="M42.698 27.13c-.907 2.016-4.1 15.429-5.647 22.992l6.857 4.135c1.547-5.614 4.337-18.455 3.933-23.296-.504-6.05-4.371-5.546-5.143-3.832Z" fill="url(#c)"/><path opacity=".2" fill-rule="evenodd" clip-rule="evenodd" d="M41.387 31.492c.574-.219 1.161-.774 1.619-1.914.445-1.112.331-2.085-.03-2.879-.114.13-.209.275-.278.429-.27.599-.741 2.205-1.311 4.364Z" fill="#fff"/><path d="M36.749 46.326C36.103 48.343 35 62.562 34.53 69.42l28.237 8.975c-.437-4.975-1.936-14.703-4.437-13.816-3.126 1.11-5.02-.349-6.534-3.374-1.21-2.42-4.458-2.374-5.467-2.374.484-2.34.202-9.043 0-12.102 2.42-1.916 12.505-8.672 12.908-11.798.404-3.127-1.916-3.53-2.42-3.43-.504.102-12.605 7.463-15.227 8.875-2.623 1.412-4.034 3.429-4.841 5.95Z" fill="#D76377"/><path d="M36.749 46.326C36.103 48.343 35 62.562 34.53 69.42l28.237 8.975c-.437-4.975-1.936-14.703-4.437-13.816-3.126 1.11-5.02-.349-6.534-3.374-1.21-2.42-4.458-2.374-5.467-2.374.484-2.34.202-9.043 0-12.102 2.42-1.916 12.505-8.672 12.908-11.798.404-3.127-1.916-3.53-2.42-3.43-.504.102-12.605 7.463-15.227 8.875-2.623 1.412-4.034 3.429-4.841 5.95Z" fill="url(#d)"/><path opacity=".2" fill-rule="evenodd" clip-rule="evenodd" d="M51.825 34.362c.566.357 1.442.464 2.74-.108 1.378-.609 1.97-1.679 2.164-2.719-.471.214-2.477 1.39-4.904 2.827Z" fill="#fff"/><path d="m62.734 14.814-.992.74.994-.738 3.957 5.332 6.646-.237a2.27 2.27 0 0 1 1.919 3.587l-.001.002-3.847 5.414 2.278 6.243.001.003a2.27 2.27 0 0 1-2.826 2.947l-6.314-1.98-5.224 4.092a2.271 2.271 0 0 1-3.684-1.76v-.003l-.07-6.646-5.503-3.713-.002-.002a2.27 2.27 0 0 1 .53-4.033l.005-.002 6.303-2.128 1.823-6.387a2.273 2.273 0 0 1 4.007-.73Z" fill="#FFCB00"/><path d="M68.92 62.726c8.874 11.396 5.983 23.464 4.034 29.75-4.357-1.05-6.79-2.387-7.463-2.925-10.407-10.569-11.068-22.91-9.354-28.019-4.134-11.698-.736-20.996.379-22.404 1.916-2.42 5.657-2.051 6.151 6.354.404 6.857 4.236 14.219 6.253 17.244Z" fill="#D76377"/><path d="M68.92 62.726c8.874 11.396 5.983 23.464 4.034 29.75-4.357-1.05-6.79-2.387-7.463-2.925-10.407-10.569-11.068-22.91-9.354-28.019-4.134-11.698-.736-20.996.379-22.404 1.916-2.42 5.657-2.051 6.151 6.354.404 6.857 4.236 14.219 6.253 17.244Z" fill="url(#e)"/><path d="M38.261 50.422c-.806.726-3.294 14.152-4.437 20.774 2.858.202 8.713.081 9.278-2.017.565-2.097.84-8.874.908-12h7.26c3.732 6.756 8.976 5.445 8.27 3.025-.706-2.42-4.538-9.58-5.547-10.387-1.008-.807-8.572-1.008-10.891-1.008-2.32 0-3.832.706-4.84 1.613Z" fill="#D76377"/><path d="M38.261 50.422c-.806.726-3.294 14.152-4.437 20.774 2.858.202 8.713.081 9.278-2.017.565-2.097.84-8.874.908-12h7.26c3.732 6.756 8.976 5.445 8.27 3.025-.706-2.42-4.538-9.58-5.547-10.387-1.008-.807-8.572-1.008-10.891-1.008-2.32 0-3.832.706-4.84 1.613Z" fill="url(#f)"/><path opacity=".2" fill-rule="evenodd" clip-rule="evenodd" d="M57.45 55.496c-.673.451-1.192 1.408-.52 3.199.534 1.424 1.583 2.075 2.62 2.321.074-.246.075-.52-.01-.81-.295-1.011-1.137-2.852-2.09-4.71Z" fill="#fff"/><path d="M50.161 68.978c15.894-.404 18.388 16.169 17.648 24.505L50.766 90.76c.202-5.95-12.908-12.404-15.227-14.118-2.32-1.714-1.916-3.328-1.916-4.84 0-1.513 3.63-14.22 5.344-16.237 1.715-2.017 13.01-2.118 14.623-.605 1.126 1.056 2.947 6.534 4.019 10.147.22.743-.32 1.497-1.09 1.416-3.13-.327-5.026-2.242-5.8-4.272-.15-.396-.67-.652-1.085-.573-.98.186-2.495.259-3.439.225-.395-.014-.8.299-.828.693l-.314 4.475c-.02.288.165.55.443.626l4.665 1.28Z" fill="#D76377"/><path opacity=".2" fill-rule="evenodd" clip-rule="evenodd" d="M55.983 60.07a104.71 104.71 0 0 1 1.625 5.034c.078.263.06.528-.03.757-1.051-.238-2.125-.886-2.667-2.332-.851-2.27.21-3.198 1.072-3.459Z" fill="#fff"/><path d="M50.969 88.747c-2.118 12.236-9.54 49.253-9.782 50.221l28.035 4.74s8.47-68.475 4.336-71.298c-8.99-6.14-22.59 16.337-22.59 16.337Z" fill="url(#g)"/><path d="M50.969 88.747c-2.118 12.236-9.54 49.253-9.782 50.221l28.035 4.74s8.47-68.475 4.336-71.298c-8.99-6.14-22.59 16.337-22.59 16.337Z" fill="url(#h)"/></g><path d="M87.597 45.573 81.93 44.22c-1.24-.31-1.24-2.058 0-2.368l5.666-1.353c.452-.113.79-.451.903-.903l1.353-5.666c.31-1.24 2.058-1.24 2.368 0l1.353 5.666c.113.452.45.79.902.903l5.666 1.353c1.241.31 1.241 2.058 0 2.368l-5.666 1.353c-.451.113-.79.45-.902.902L92.22 52.14c-.31 1.24-2.058 1.24-2.368 0l-1.353-5.666c-.113-.451-.451-.818-.902-.902Z" fill="#FFCB00"/><path d="M44.069 9.137a4.069 4.069 0 1 0 0-8.137 4.069 4.069 0 0 0 0 8.137Z" fill="#00CC6F"/><path d="M91.526 16.052a3.526 3.526 0 1 0 0-7.052 3.526 3.526 0 0 0 0 7.052Z" fill="#F36"/><path d="m94.219 69.928-6.221-7.312c-.984-1.132-2.703-1.272-3.836-.289-1.132.983-1.272 2.703-.288 3.835l6.22 7.313c.984 1.132 2.704 1.272 3.836.289 1.132-.984 1.272-2.703.289-3.836Z" fill="#00CC6F"/><path d="m29.084 22.195-8.005 1.7c-1.247.278-2.049 1.51-1.77 2.758.277 1.247 1.51 2.049 2.757 1.77l8.004-1.699c1.247-.278 2.05-1.51 1.771-2.758-.278-1.247-1.51-2.049-2.758-1.77Z" fill="#FC0"/><path d="m22.4 63.816-3.523-.842c-.77-.192-.77-1.279 0-1.472l3.522-.84a.76.76 0 0 0 .561-.562l.841-3.522c.193-.77 1.28-.77 1.472 0l.841 3.522c.07.28.28.491.561.561l3.522.841c.771.193.771 1.28 0 1.472l-3.522.842a.76.76 0 0 0-.56.56l-.842 3.523c-.192.77-1.279.77-1.472 0l-.84-3.523c-.071-.28-.281-.508-.562-.56Z" fill="#FFCB00"/><defs><linearGradient id="a" x1="65.868" y1="88.001" x2="79.7" y2="113.497" gradientUnits="userSpaceOnUse"><stop stop-color="#fff"/><stop offset="1" stop-color="#fff" stop-opacity="0"/></linearGradient><linearGradient id="c" x1="42.161" y1="47.561" x2="52.768" y2="37.245" gradientUnits="userSpaceOnUse"><stop stop-color="#953243"/><stop offset="1" stop-color="#B74F61" stop-opacity="0"/></linearGradient><linearGradient id="d" x1="46.733" y1="67.1" x2="62.989" y2="41.711" gradientUnits="userSpaceOnUse"><stop stop-color="#953243"/><stop offset="1" stop-color="#B74F61" stop-opacity="0"/></linearGradient><linearGradient id="e" x1="62.667" y1="72.004" x2="69.005" y2="70.269" gradientUnits="userSpaceOnUse"><stop stop-color="#AA4355"/><stop offset="1" stop-color="#B74F61" stop-opacity="0"/></linearGradient><linearGradient id="f" x1="39.068" y1="64.137" x2="46.733" y2="49.313" gradientUnits="userSpaceOnUse"><stop stop-color="#953243"/><stop offset="1" stop-color="#B74F61" stop-opacity="0"/></linearGradient><linearGradient id="g" x1="62.667" y1="82.797" x2="60.751" y2="75.637" gradientUnits="userSpaceOnUse"><stop stop-color="#D76377"/><stop offset="1" stop-color="#D76377" stop-opacity="0"/></linearGradient><linearGradient id="h" x1="57.845" y1="123.036" x2="63.368" y2="105.852" gradientUnits="userSpaceOnUse"><stop stop-color="#FC0"/><stop offset="1" stop-color="#FC0" stop-opacity="0"/></linearGradient></defs></svg>